<svg id="Layer_1" data-name="Layer 1" xmlns="http://www.w3.org/2000/svg" viewBox="0 0 308.53 199.93"><defs><style>.cls-1{fill:#e31837;}.cls-2{fill:#fff;}</style></defs><title>dellogo</title><path class="cls-1" d="M22.65,90.56l7.25,4.53.29,1.25-7.25-4.53Zm.85,3.66,7.25,4.53L31,100l-7.24-4.53Zm1.78-5.3,7.25,4.53-1.25.29L24,89.21Zm-.92,9,7.25,4.53.29,1.24-7.25-4.52Zm.34,48.68.36-.08,7.25,4.53-1.25.29-6.15-3.85Zm.51-45,7.24,4.53.29,1.25-7.24-4.53Zm.86,3.75,7.25,4.53.29,1.25-7.25-4.53Zm.85,3.66,7.24,4.53.29,1.24-7.24-4.52Zm2,36.66,7.24,4.52-1.24.29L27.65,146ZM29,88.06l7.25,4.52L35,92.87l-7.25-4.52Zm-1.25,24.71L35,117.3l.29,1.25L28.07,114Zm.85,3.66L35.87,121l.29,1.25-7.24-4.53Zm.84,3.66,7.25,4.53.29,1.25-7.25-4.53Zm.89,3.83,7.24,4.53.29,1.25-7.24-4.53Zm.86,3.75,7.25,4.53.29,1.25-7.25-4.53Zm1.51,17.13L40,149.33l-1.25.29-7.25-4.53Zm3.8-9.61-4.07-2.54-.28-1.25,5.6,3.5Zm-.05,8.74,7.25,4.53-1.25.29-7.25-4.53Zm4.1-.94,7.25,4.53-1.25.28-7.25-4.52ZM40,80.55l9.79,6.19a9.71,9.71,0,0,1,.73,1.53L42.05,83Zm4.2,61.32,7,4.4-1,.42L43,142.23Zm.11-55.27,7.58,4.73.37,1.23L44.78,87.9Zm1.33,4.11,7.24,4.53.29,1.25L45.9,92Zm1.76,49.58,6.92,4.32-.92.5-6.92-4.33Zm-.82-45.48,7.25,4.53.29,1.25-7.25-4.53Zm.89,3.84,7.24,4.53.29,1.25L47.74,99.9Zm.93,4,7.24,4.53.29,1.25-7.25-4.53ZM50,138.38l6.7,4.19-.7.63L49.25,139Zm-.69-31.88L56.51,111l.31,1.34-7.25-4.53Zm.89,3.84,7.24,4.52.31,1.34-7.24-4.53Zm.9,3.92,7.25,4.53.29,1.25-7.25-4.53Zm.85,22,6.59,4.12-.48.77-6.7-4.19Zm.1-17.87,7.25,4.52.28,1.25-7.24-4.53Zm.91,3.92,7.24,4.53.18,1.18-7.14-4.46Zm.5,11.16,6.37,4-.26.9L53,134.28Zm.29-7.3,6.92,4.32,0,1.13-6.81-4.25Zm.26,4,6.59,4.11-.15,1L53.7,131Z" transform="translate(-9.96 -13.23)"/><path class="cls-1" d="M66.85,80.55l7.25,4.52.29,1.25-7.25-4.53Zm.85,3.65,7.24,4.53L75.23,90,68,85.45ZM69,78.83l7.25,4.53L75,83.65l-7.25-4.53Zm-.45,9,7.25,4.53.29,1.25-7.25-4.53Zm.32,48.6.36-.08,7.25,4.52-1.25.29-6.15-3.84Zm5.73-40.69-4.94-3.09-.28-1.25,6.47,4ZM72.56,78l7.25,4.53-1.25.28-7.25-4.53Zm.49,57.48L80.3,140l-1.25.29-7.24-4.53Zm-.27-29.25L80,110.77l.29,1.25-7.25-4.53Zm.85,3.65,7.25,4.53.28,1.25-7.24-4.53Zm1.45-5.5,7.25,4.53-1.25.29-7.25-4.53Zm-.57,9.34,7.25,4.53.29,1.25L74.8,115ZM76,77.2l7.25,4.53L82,82l-7.25-4.53Zm-.66,40.28L82.63,122l.28,1.24-7.24-4.52Zm1.51,17.13,7.25,4.52-1.25.29-7.25-4.53Zm-.63-13.3,5.49,3.43-1.24.29-4-2.47Zm2.57-17.78,7.25,4.52-1.25.29-7.25-4.53Zm.87-27.17,7.24,4.53-1.24.29-7.25-4.53Zm.94,57.38,7.24,4.53-1.24.29L79.39,134Zm1.85-31.06,7.24,4.53-1.25.29L81.24,103Zm-1.08-36.4.9-.2,6.14,3.84.29,1.25L81.5,66.64Zm.58,2.5,7.25,4.53.28,1.25L82.28,70Zm1.28,6.76,7.24,4.52-1.25.29L82,75.82Zm-.48-3.28L90,76.79,90.33,78l-7.25-4.53Zm1.95,60.53L92,137.32l-1.25.29-7.25-4.53Zm-.36-40.22.89-.21,6.15,3.84.29,1.25-7.25-4.53ZM85,95.06l7.24,4.53.29,1.25-7.25-4.53Zm1.27,6.76,7.25,4.52-1.25.29L85,102.11Zm-.47-3.28L93,103.07l.29,1.25-7.25-4.53Zm2.91,33.35,7.24,4.53-1.25.28-7.24-4.53Zm3.92-.91,7.25,4.53-1.25.29-7.25-4.53Zm2.34-10.22.89-.2L102,124.4l.29,1.25L95,121.12Zm1.5,9.34,7.24,4.52-1.25.29-7.24-4.53Zm-.92-6.84,7.24,4.53L103,129l-7.25-4.53Zm.82,3.57,7.25,4.53.29,1.25-7.25-4.53Z" transform="translate(-9.96 -13.23)"/><path class="cls-1" d="M103.8,61.12,110,65l.29,1.25L103,61.68l-.08-.36Zm-.25,3,7.25,4.53.29,1.24-7.25-4.52Zm.85,3.65,7.24,4.53.29,1.25L104.68,69Zm.86,3.75L112.51,76l.29,1.25-7.25-4.53Zm.84,3.66,7.25,4.53.29,1.25-7.25-4.53Zm.87,3.74,7.25,4.53.28,1.25-7.24-4.53Zm.34,48.69.36-.08,7.24,4.53-1.24.29-6.15-3.85Zm.5-45,7.25,4.53.29,1.25L108.1,83.8Zm.87,3.75,7.25,4.53.28,1.25L109,87.55Zm.84,3.66,7.25,4.53.29,1.24-7.25-4.52Zm2,36.65,7.25,4.53-1.25.29-7.25-4.53ZM110.39,93.7l7.25,4.53.28,1.25L110.68,95Zm.84,3.66,7.25,4.53.29,1.25-7.25-4.53Zm.85,3.66,7.24,4.53.29,1.24-7.24-4.52Zm.88,3.83,7.25,4.53.29,1.25-7.25-4.53Zm.87,3.75,7.24,4.53.29,1.25-7.24-4.53Zm1.51,17.13,7.25,4.53-1.25.29L114.09,126Zm-.63-13.29,5.6,3.49-1.25.29L115,113.69Zm4.38,12.42,7.24,4.53-1.25.29-7.24-4.53Zm4.1-.94,7.25,4.52-1.25.29-7.25-4.53Zm3.92-.91,7.25,4.53-1.25.29-7.24-4.53Zm3.93-.91,7.25,4.53-1.25.29-7.25-4.53Zm2.34-10.21.89-.21,6.15,3.84.29,1.25-7.25-4.53ZM135,121.2l7.25,4.53L141,126l-7.24-4.52Zm-1-6.82,7.25,4.53.29,1.25-7.25-4.53Zm.83,3.57,7.25,4.53.28,1.25-7.24-4.53Z" transform="translate(-9.96 -13.23)"/><path class="cls-1" d="M141.27,52.47l6.15,3.84.29,1.25L140.46,53l-.08-.36Zm-.25,3L148.27,60l.28,1.24-7.24-4.52Zm.84,3.65,7.25,4.53.29,1.25-7.25-4.53Zm.87,3.75L150,67.37l.28,1.25L143,64.09Zm.84,3.66L150.82,71l.29,1.25-7.25-4.53Zm.87,3.74,7.24,4.53L152,76l-7.24-4.53Zm.43,48.67.35-.08,7.25,4.53-1.25.29-6.15-3.85Zm.41-45,7.25,4.53.29,1.25-7.25-4.53Zm.87,3.75,7.24,4.53.29,1.25-7.25-4.53Zm.84,3.66,7.25,4.53.29,1.24-7.25-4.52ZM149,118l7.25,4.53-1.25.29-7.25-4.53Zm-1.11-32.91,7.24,4.53.29,1.25-7.25-4.53Zm.84,3.66L156,93.24l.29,1.25L149,90Zm.84,3.66,7.25,4.53.29,1.25-7.25-4.53Zm.89,3.83,7.25,4.53L158,102l-7.25-4.53Zm.86,3.75,7.25,4.53.29,1.25-7.25-4.53Zm1.52,17.13,7.24,4.53-1.25.29-7.24-4.53Zm-.63-13.29,7.25,4.52.29,1.25L152.47,105Zm.87,3.74,7.24,4.53.29,1.25-7.25-4.53Zm.86,3.75,7.25,4.53.29,1.25-7.25-4.53Zm.89,3.84,7.24,4.52.29,1.25-7.25-4.53Z" transform="translate(-9.96 -13.23)"/><path class="cls-1" d="M160.63,48l6.47,3.2.49,1.3-7.77-3.94-.17-.34Zm.08,2.8,7.79,4,.6,1.37-7.68-4ZM162.52,55l7.62,3.69.49,1.3-7.53-3.71ZM164,58.32l7.55,3.8.49,1.29-7.44-3.73ZM165.46,62l7.55,3.8.47,1.21-7.42-3.65Zm1.62,3.76,7.33,3.66.6,1.37-7.33-3.67Zm1.62,3.76,7.35,3.75.47,1.21-7.22-3.6Zm10.51,9.32-8.29-4.2-.71-1.43,9,4.69Zm.13,3-6.8-3.42L171.83,77l7.46,3.82ZM179.5,85l-5.3-2.63-.71-1.43,5.95,3Zm.24,3-3.92-1.92-.71-1.43L179.69,87Zm2.61,28.43-6.14-3.84.15-1,7.24,4.53ZM179.88,91.1l-2.55-1.29-.71-1.44L179.81,90Zm6.31,24.47L178.94,111l1.25-.28,7.25,4.52Zm3.75-.86-7.25-4.53,1.25-.29,7.25,4.53Zm3.57-65.1-7-4.39-.07-1.11,7,4.39Zm-.12-3-6.92-4.32,0-.29.89-.2,5.93,3.7Zm.2,6.16-7-4.39-.07-1.11,7,4.39ZM187.77,109l7.25,4.52-1.25.29-7.24-4.53Zm-1.11-58.57,7,4.4.07,1.11-7-4.39Zm.09,3.27,7,4.39.07,1.11-7-4.39Zm.08,3.18L194,61.35l.07,1.11L186.9,58Zm.1,3.26,7.13,4.46.07,1.11L187,61.27Zm.2,3.34,7,4.39.07,1.11-7-4.39Zm.1,3.26,7,4.4.06,1.11-7-4.39Zm7.28,8.75-7-4.39L187.41,70l7,4.39Zm.12,3.36-7-4.39-.07-1.11,7,4.39Zm.09,3.27-7-4.4-.07-1.11,7,4.39Zm-7-2.24,7,4.39.07,1.11-7-4.39Zm.12,3.36,7,4.39.07,1.11-7-4.39Zm.08,3.17,7.13,4.46.07,1.11L188,87.53Zm.11,3.36,7.14,4.46.07,1.11-7.14-4.46Zm.21,3.33,7,4.39.07,1.11-7-4.39Zm.1,3.27,7,4.39.07,1.11-7-4.39Zm.11,3.35,7.14,4.46,0,1-7-4.39Zm.1,3.27,7.14,4.46.07,1.11-7.14-4.46Zm.1,3.27,7.13,4.46.07,1.11-7.14-4.46Z" transform="translate(-9.96 -13.23)"/><path class="cls-1" d="M207.71,48,215,52.55l.29,1.25L208,49.27Zm.85,3.65,7.24,4.53.29,1.25-7.25-4.53Zm1.29-5.37,7.25,4.53-1.25.29L208.6,46.6Zm-.45,9,7.25,4.53.28,1.25-7.24-4.53Zm.32,48.6.36-.08,7.24,4.53-1.25.28-6.14-3.84Zm5.73-40.69-4.94-3.09-.29-1.25L216.7,63Zm-2-17.76L220.67,50l-1.25.28-7.25-4.53Zm.49,57.48,7.25,4.53-1.25.29-7.25-4.53Zm-.27-29.25,7.25,4.53.29,1.25L213.93,75Zm.85,3.65,7.24,4.53.29,1.25-7.25-4.53Zm1.45-5.5,7.25,4.53-1.25.29-7.25-4.53Zm-.57,9.34,7.25,4.53.29,1.25-7.25-4.53Zm1.53-36.53,7.25,4.53-1.25.29L215.65,45ZM216.24,85l7.24,4.53.29,1.24-7.24-4.52Zm1.51,17.13,7.24,4.52-1.24.29-7.25-4.53Zm-.63-13.3,5.49,3.43-1.25.29-4-2.47ZM219.69,71l7.24,4.52-1.24.29-7.25-4.53Zm.87-27.17,7.24,4.53-1.25.29-7.24-4.53Zm.94,57.38,7.24,4.53-1.25.29-7.24-4.53Zm1.84-31.06,7.25,4.53-1.25.29-7.24-4.53Zm-1.07-36.39.89-.21,6.15,3.84.29,1.25-7.25-4.53Zm.58,2.49,7.24,4.53.29,1.25-7.24-4.53ZM224.12,43l7.25,4.52-1.25.29-7.24-4.53Zm-.47-3.28,7.25,4.53.29,1.25L223.94,41Zm1.95,60.53,7.25,4.53-1.25.29-7.25-4.53Zm-.36-40.22.89-.21,6.15,3.84.29,1.25-7.25-4.53Zm.57,2.5,7.25,4.52.29,1.25-7.25-4.53Zm1.28,6.75,7.25,4.53-1.25.28-7.25-4.52ZM226.62,66l7.24,4.53.29,1.25-7.24-4.53Zm2.9,33.35,7.25,4.53-1.25.28-7.25-4.52Zm3.93-.91L240.7,103l-1.25.29-7.25-4.53Zm2.34-10.22.89-.2,6.15,3.84.29,1.25-7.25-4.53Zm1.49,9.34,7.25,4.52-1.25.29L236,97.86Zm-.92-6.84,7.25,4.53.29,1.25L236.65,92Zm.83,3.57,7.25,4.53.28,1.25-7.24-4.53Z" transform="translate(-9.96 -13.23)"/><path class="cls-1" d="M245.67,37.85l7.47,4.67.29,1.25L246,39.1Zm1,4L254,46.44l.29,1.25L247,43.18Zm1,3.81,7.25,4.53.29,1.25L248,46.91Zm.51,49.4.36-.08,7.24,4.53-1.25.29L248.37,96Zm.38-45.56L255.79,54l.29,1.24-7.24-4.52ZM250.08,37l7.25,4.53-1.25.29-7.24-4.53Zm4.21,20.27-4.61-2.89-.29-1.24L255.54,57Zm-1.93,36.8,7.25,4.53-1.25.29-7.25-4.53Zm1.84-27.86,5.16,3.23.29,1.25-7-4.3Zm-1.11,2.52,7.13,4.46.29,1.24-7.11-4.37Zm.73,3.58,7.25,4.53.29,1.25-7.25-4.53Zm.87,3.75,7.24,4.53.29,1.25L255,77.33Zm1.51,17.13,7.24,4.53-1.25.29L255,93.5Zm-.63-13.29,7.25,4.53.29,1.24-7.25-4.52Zm.87,3.74,7.24,4.53.29,1.25-7.25-4.53Zm.86,3.75,7.25,4.53.29,1.25-7.25-4.53Zm.89,3.84,7.24,4.52.29,1.25-7.24-4.52Zm5.49-61.69,9.24,5.85.95,1.66-8.79-5.48Zm3.7,5.44L275,39.74l.6,1.36-7.69-4.8Zm.05,26.68,7.7,3.67,1,1.64-7.86-3.92Zm.8-2.63,6.53,3.47-.59.7-6.51-3.38Zm.87-19.84,7.25,4.53.28,1.25-7.24-4.53Zm.62,17.33,6.55,3.56-.46.86-6.55-3.56Zm-.3,8.9,8.3,4.2.91,1.48-8.3-4.19Zm.5-22.29,7.24,4.53.18,1.18L270.2,44.4Zm.61,10.39,6.63,3.92a3.34,3.34,0,0,1-.26.9l-6.52-3.85Zm.05-6.69,7,4.39.09,1.21-6.92-4.33Zm.23,3.43,6.81,4.25,0,1-6.81-4.25Zm.37,39.47.36-.08,7.25,4.53-1.25.28-6.15-3.84Zm.37-20.38,8.63,4.4.92,1.57L272.68,71Zm3.83,19.41,7.24,4.53-1.25.29-7.24-4.53Zm-1.15-15.14L282.75,78l.81,1.5-8.4-4.26Zm2.39,4.24,8.73,4.46.91,1.49-8.52-4.33Zm2.68,10,7.25,4.52-1.25.29-7.25-4.53Zm-.18-5.69,8.62,4.39.91,1.49-8.41-4.26Zm2.76,4.24,8.77,5-1.25.28-7.87-4.38.8-.19Z" transform="translate(-9.96 -13.23)"/><path class="cls-1" d="M284.18,19.47l6.89,3.39.82,1.5L283.37,20l-.17-.34Zm.72,3.13L293.44,27l.82,1.51-8.54-4.42Zm2.54,4.48,8.26,4,.79,1.42-8.25-4Zm2.29,3.8L297.91,35l.49,1.3-8.08-4.06ZM292,35l7,3.55-.06,1-6.36-3.14Zm2.48,4.22,4.45,2.17,0,1-3.81-1.84Zm6.61,43.67.35-.08,7.25,4.53-1.25.28-6.15-3.84Zm4.1-.95,7.25,4.53-1.25.29-7.25-4.53Zm1-26.83,6.37,4,.29,1.25-6.81-4.25Zm.05,3.47,7.25,4.52.29,1.25-7.25-4.52Zm.19-6.91,6.15,3.85,0,1-6.15-3.84Zm.37-3.28L313,52.2l0,1-6.15-3.84Zm6.34,1.83-6-3.78.05-1,6.14,3.84Zm-6,12.28L314.41,67l.29,1.25-7.25-4.53Zm6.34-15.27-6.15-3.85.15-1,6,3.77Zm.32-3.08-6.15-3.85,0-1,6.15,3.84ZM309,81l7.24,4.53-1.24.28-7.25-4.52Zm-1-44.77,6.15,3.84,0,1-6.15-3.84Zm.12,30.23L315.34,71l.29,1.25-7.25-4.53Zm.23-33.22,6.15,3.84-.05,1-6.14-3.84Zm.34-3,6.15,3.85-.15,1-6.15-3.84Zm.23-3.06L315,31.05l0,1-6.15-3.84ZM309,70.58l7.25,4.53.29,1.25-7.25-4.53Zm.22-46.28,6.14,3.84-.15,1-6.15-3.84Zm.23-3.06,6.15,3.84,0,1.05-6.15-3.85Zm6.38,2-6.15-3.84,0-1,6.15,3.84ZM310,74.77l7.25,4.53.28,1.25L310.3,76Zm6.11-54.5-6-3.77.05-1,6.15,3.84Zm.32-2.7-6.15-3.84,0-.29.89-.21,5.36,3.27ZM311,78.88l7.24,4.52.29,1.25-7.25-4.53Z" transform="translate(-9.96 -13.23)"/><path class="cls-2" d="M10,82.78,26.37,79c11.69-2.7,18.06,2.51,20.43,12.76l7.31,31.67c2.34,10.17-1.1,17.64-12.79,20.34l-16.41,3.78Zm13.57,7.49,10.29,44.6,4.37-1c4.11-1,5.69-3.47,4.47-8.73l-6.92-30c-1.21-5.26-3.74-6.84-7.84-5.89Z" transform="translate(-9.96 -13.23)"/><path class="cls-2" d="M54.12,72.59l28.19-6.51,2.32,10.08L67.68,80.07l3.59,15.52,14-3.23,2.33,10.08-14,3.23,4.39,19,17.84-4.12,2.33,10.08-29.08,6.71Z" transform="translate(-9.96 -13.23)"/><path class="cls-2" d="M92.56,63.71l11.24-2.59,12.63,54.68,17.84-4.12,2.33,10.08-29.08,6.71Z" transform="translate(-9.96 -13.23)"/><path class="cls-2" d="M130.12,55l11.15-2.57,14.95,64.76-11.15,2.57Z" transform="translate(-9.96 -13.23)"/><path class="cls-2" d="M176.15,44.41l11.24-2.59,2.55,67.62-13.73,3.18L148.85,50.71,160.63,48l18.59,45.13Z" transform="translate(-9.96 -13.23)"/><path class="cls-2" d="M195,40.07l28.19-6.51,2.33,10.08-17,3.91,3.58,15.52,14-3.23,2.33,10.08-14,3.23,4.39,19L236.68,88,239,98.12l-29.08,6.71Z" transform="translate(-9.96 -13.23)"/><path class="cls-2" d="M233.42,31.19,249,27.59c12.31-2.85,18.86,2.31,21.81,15.07,2,8.65,1.31,14.64-2.9,18.8l15.49,26.4-12,2.78L258.17,66.35l-4.55,1.05,6,26L248.37,96ZM247,38.68l4.3,18.64,3.48-.8c4.73-1.09,6.64-3.41,4.85-11.17-1.69-7.32-4.42-8.57-9.15-7.48Z" transform="translate(-9.96 -13.23)"/><path class="cls-2" d="M295.71,59.66,272.5,22.17l11.68-2.7,13.65,24.1L299.35,16l11.86-2.74-4.35,43.85,5.56,24.09-11.15,2.57Z" transform="translate(-9.96 -13.23)"/><path class="cls-2" d="M108.65,152.33l7.25,4.53.29,1.25-7.25-4.53Zm.85,3.66,7.25,4.53.28,1.25-7.24-4.53Zm1.78-5.3,7.25,4.53-1.25.29L110,151Zm-.92,9.05,7.25,4.53.29,1.25L110.65,161Zm.35,48.69.35-.09,7.25,4.53-1.25.29-6.15-3.84Zm.5-45,7.25,4.52.28,1.25-7.24-4.52Zm.86,3.74,7.25,4.53.29,1.25-7.25-4.53Zm.85,3.66,7.25,4.53.28,1.25-7.24-4.53Zm2,36.66,7.24,4.53-1.24.28-7.25-4.52Zm.13-57.63,7.25,4.53-1.25.29-7.25-4.53Zm-1.25,24.72,7.25,4.52.29,1.25-7.25-4.53Zm.85,3.66,7.24,4.52.29,1.25-7.24-4.53Zm.84,3.65,7.25,4.53.29,1.25-7.25-4.53Zm.89,3.84,7.24,4.53.29,1.24L116.65,187Zm.86,3.74,7.25,4.53.29,1.25-7.25-4.53Zm1.51,17.13L126,211.1l-1.25.29-7.24-4.53Zm3.8-9.61-4.06-2.54-.29-1.25,5.6,3.5Zm0,8.75,7.25,4.53-1.25.28L121.23,206Zm4.1-1,7.25,4.53-1.25.29-7.24-4.53Zm-.6-62.44,9.79,6.2a9.21,9.21,0,0,1,.73,1.52l-8.45-5.28Zm4.2,61.33,7,4.39-1,.42L129,204Zm.11-55.28,7.58,4.74.38,1.22-7.47-4.66Zm1.33,4.11,7.24,4.53.29,1.25-7.25-4.53Zm1.76,49.58,6.92,4.32-.92.5-6.92-4.32Zm-.82-45.47,7.25,4.53.29,1.24-7.25-4.53Zm.89,3.83L140.7,165l.28,1.25-7.24-4.53Zm.93,4,7.24,4.53.29,1.24-7.25-4.53ZM136,200.15l6.7,4.19-.7.63-6.7-4.18Zm-.69-31.88,7.25,4.53.31,1.34-7.25-4.53Zm.89,3.84,7.24,4.53.31,1.34-7.24-4.53Zm.9,3.92,7.25,4.53.29,1.25-7.25-4.53Zm.85,22,6.59,4.12-.48.77-6.7-4.19Zm.1-17.87,7.25,4.53.29,1.24-7.25-4.53Zm.91,3.92,7.24,4.53.18,1.18-7.14-4.46Zm.51,11.16,6.36,4-.26.9-6.48-4Zm.28-7.3,6.92,4.32,0,1.13-6.81-4.25Zm.26,4,6.59,4.12-.15,1-6.7-4.19Z" transform="translate(-9.96 -13.23)"/><path class="cls-2" d="M152.37,141l7.46,4.67.29,1.25-7.47-4.67Zm1,4,7.36,4.6.29,1.25-7.34-4.51Zm1,3.82,7.24,4.53.29,1.25-7.24-4.53Zm.5,49.4.36-.08,7.25,4.53-1.25.28-6.15-3.84Zm.38-45.56,7.25,4.52.29,1.25-7.25-4.52Zm1.54-12.48,7.25,4.53-1.25.29-7.25-4.53ZM161,160.45l-4.61-2.88-.29-1.25,6.15,3.85Zm-1.93,36.81,7.24,4.53-1.25.29-7.24-4.53Zm1.83-27.86,5.16,3.23.29,1.25-7-4.31Zm-1.11,2.51,7.14,4.46.29,1.25-7.12-4.37Zm.74,3.59,7.24,4.53.29,1.25-7.25-4.53Zm.86,3.75,7.25,4.53.29,1.25-7.25-4.53Zm1.51,17.13,7.25,4.53-1.25.28-7.25-4.52Zm-.62-13.3,7.24,4.53.29,1.25-7.25-4.53Zm.86,3.75,7.25,4.53.29,1.25-7.25-4.53Zm.87,3.75,7.24,4.53.29,1.25-7.25-4.53Zm.88,3.84,7.25,4.52.29,1.25-7.25-4.53Zm5.49-61.69,9.25,5.85.94,1.66-8.78-5.49Zm3.7,5.44,7.58,4.74.59,1.36-7.68-4.8Zm.05,26.67,7.71,3.68,1,1.63L175,166.24Zm.8-2.62,6.54,3.47-.59.7L174.35,163Zm.87-19.84,7.25,4.53.29,1.24-7.25-4.52Zm.62,17.33,6.56,3.56-.46.86L176,160.57Zm-.29,8.9,8.3,4.19.9,1.49-8.3-4.2Zm.49-22.29,7.25,4.53L184,152l-7.14-4.46Zm.61,10.39,6.64,3.91a4.19,4.19,0,0,1-.26.91l-6.53-3.85Zm.06-6.69,7,4.39.09,1.2-6.91-4.32Zm.22,3.43,6.81,4.25,0,1-6.81-4.25Zm.38,39.47.35-.08,7.25,4.52-1.25.29-6.15-3.84Zm.37-20.38,8.62,4.39.93,1.58-8.43-4.35ZM182.07,192l7.25,4.53-1.25.29-7.25-4.53Zm-1.15-15.15,8.52,4.33.82,1.51-8.41-4.26Zm2.39,4.25,8.74,4.46L193,187l-8.51-4.33ZM186,191l7.24,4.53-1.25.29-7.24-4.53Zm-.19-5.69,8.63,4.4.9,1.48-8.4-4.26Zm2.77,4.25,8.77,5-1.25.29-7.87-4.38.8-.19Z" transform="translate(-9.96 -13.23)"/><path class="cls-2" d="M196.44,134.51l7.24,4.53.29,1.25-7.34-4.51Zm.56-2.85,6.89,4.23a3.12,3.12,0,0,0-.24,1l-6.91-4.33Zm.3,6.6,7.25,4.53.28,1.25-7.24-4.53Zm1.69-8.57,7,4.4-1,.42-6.91-4.32Zm-.8,12.4,7.24,4.53.29,1.25-7.25-4.53Zm.86,3.75,7.25,4.53.29,1.25-7.25-4.53Zm.89,3.84,7.24,4.53.29,1.24-7.25-4.52Zm.86,3.74,7.25,4.53.29,1.25-7.25-4.53Zm1.8-24.75,5.71,3.57.51,1.39L201.35,129Zm2,56.85,9,5.62a10.44,10.44,0,0,1-1.68,0l-10.41-6.43Zm-3-28.35,7.24,4.53.29,1.25L202,158.42Zm.88,3.84,7.25,4.53.29,1.24-7.25-4.52Zm.85,3.65,7.24,4.53.29,1.25-7.25-4.53Zm.86,3.75,7.25,4.53.29,1.25-7.25-4.53Zm7.06,8.61-5.93-3.7-.28-1.25,7.68,4.8Zm-.54,9,7.47,4.67-1.36.22-7.67-4.72Zm2.28-64.61,9.79,6.2a10,10,0,0,1,.73,1.52l-8.45-5.28Zm1.87,63.84,7.13,4.46-1.14.36-7.24-4.53Zm2.44-57.78,7.58,4.73.37,1.23-7.46-4.67Zm1.15,56.67,6.81,4.26-1,.42-6.92-4.32Zm.18-52.56,7.24,4.53.29,1.25L219,132.88Zm.94,4.1,7.25,4.53.29,1.25L219.93,137Zm1.64,47,6.7,4.18-.81.57-6.7-4.19Zm-.73-43.05,7.25,4.52.28,1.25-7.24-4.52Zm.93,4,7.24,4.53.29,1.25-7.25-4.53Zm.86,3.75,7.25,4.53.31,1.33-7.25-4.52Zm1.33,33.42,6.59,4.12a4,4,0,0,1-.7.63l-6.48-4.05Zm-.44-29.59,7.24,4.53.29,1.25-7.25-4.53Zm.86,3.75,7.25,4.53.29,1.25-7.25-4.53Zm.89,3.83,7.24,4.53.29,1.25-7.24-4.53Zm.57,20,6.37,4a2.27,2.27,0,0,1-.48.77l-6.46-4Zm.29-16.23,7.25,4.53.29,1.25-7.25-4.53ZM226.6,176l6.59,4.12-.35.92-6.48-4Zm.13-9.61,7.13,4.46.09,1.2L227,167.76Zm.54,6.83,6.59,4.11a4.32,4.32,0,0,1-.15,1l-6.59-4.12Zm.12-3.13,6.7,4.18,0,1-6.7-4.19Z" transform="translate(-9.96 -13.23)"/><path class="cls-2" d="M239.61,120.88l7.47,4.66.29,1.25-7.47-4.66Zm1,4,7.35,4.6.29,1.25-7.33-4.51Zm1,3.82,7.25,4.53.29,1.25-7.25-4.53Zm.51,49.4.35-.08,7.25,4.52-1.25.29L242.31,179Zm.38-45.57,7.24,4.53.29,1.25-7.24-4.53ZM244,120.05l7.25,4.53-1.25.28-7.25-4.52Zm4.21,20.26-4.61-2.88-.29-1.25,6.15,3.84Zm-1.93,36.81,7.25,4.53-1.25.29-7.25-4.53Zm1.84-27.86,7.35,4.6-1.25.29-7.66-4.72ZM247,151.77l7.14,4.46.29,1.25-7.12-4.37Zm.74,3.59,7.25,4.53.28,1.25-7.24-4.53Zm.86,3.75,7.25,4.53.29,1.25-7.25-4.53Zm1.52,17.13,7.24,4.52-1.25.29-7.24-4.53Zm-.63-13.3,7.25,4.53.29,1.25-7.25-4.53Zm.87,3.75,7.24,4.53.29,1.25-7.25-4.53Zm1.79-18.27,7.14,4.46-1.14.36-7.25-4.53Zm-.93,22,7.25,4.53.29,1.24-7.25-4.52Zm.89,3.83,7.24,4.53.29,1.25-7.25-4.53Zm3.64-27,6.8,4.25-1,.43-6.92-4.32Zm2.65-1.55,6.69,4.19-.81.56-6.69-4.19Zm-.8-33.17,9.13,5.78,1.06,1.73L259,114.61Zm3.18,31.3,6.59,4.12a3.41,3.41,0,0,1-.7.63l-6.48-4Zm.74-25.72,7.35,4.59.6,1.37L262,119.46Zm1.14,23.69,6.37,4a2,2,0,0,1-.48.77l-6.46-4Zm.36-19.62,7.25,4.52.28,1.25-7.24-4.53Zm.8,16.91,6.59,4.12-.35.92-6.48-4Zm0-13,7.24,4.53.18,1.18-7.14-4.46Zm.55,3.63,7.14,4.46.09,1.2-6.92-4.32Zm.22,6.62,6.58,4.12a3.31,3.31,0,0,1-.26.91l-6.48-4.05Zm.23-3.06,6.7,4.19-.05,1-6.69-4.18Z" transform="translate(-9.96 -13.23)"/><path class="cls-1" d="M96,144.55l16.41-3.79c11.69-2.69,18.06,2.51,20.43,12.77l7.31,31.66c2.35,10.17-1.1,17.64-12.78,20.34l-16.42,3.79ZM109.53,152l10.29,44.6,4.38-1c4.1-.94,5.68-3.47,4.46-8.73l-6.92-30c-1.21-5.26-3.74-6.84-7.84-5.89Z" transform="translate(-9.96 -13.23)"/><path class="cls-1" d="M140.12,134.36l15.61-3.61c12.31-2.84,18.86,2.32,21.8,15.08,2,8.65,1.31,14.64-2.89,18.8L190.13,191l-12,2.78-13.22-24.29-4.54,1,6,26-11.24,2.59Zm13.56,7.48L158,160.49l3.48-.8c4.72-1.1,6.63-3.42,4.84-11.18-1.69-7.31-4.42-8.56-9.15-7.47Z" transform="translate(-9.96 -13.23)"/><path class="cls-1" d="M214.78,186.28c-11.6,2.68-17.88-2.55-20.25-12.8l-7.7-33.37c-2.37-10.26,1-17.61,12.6-20.29s18,2.41,20.4,12.67l7.71,33.37C229.91,176.11,226.46,183.58,214.78,186.28Zm-9-15.31c1.09,4.73,3.29,6.1,6.68,5.32,3.57-.83,4.94-3,3.85-7.75l-7.73-33.45c-1.07-4.64-3.28-6.1-6.85-5.28-3.39.78-4.74,3.07-3.67,7.71Z" transform="translate(-9.96 -13.23)"/><path class="cls-1" d="M227.36,114.22,243,110.61c12.22-2.82,18.86,2.32,21.8,15.08,3.09,13.38-.62,20.91-12.84,23.73l-4.37,1,6,26L242.31,179Zm13.57,7.48,4.3,18.65,3.48-.81c4.73-1.09,6.64-3.41,4.85-11.17-1.69-7.31-4.42-8.56-9.15-7.47Z" transform="translate(-9.96 -13.23)"/></svg>